<svg version="1.1" id="Layer_1" xmlns="http://www.w3.org/2000/svg" xmlns:xlink="http://www.w3.org/1999/xlink" x="0px" y="0px"
	 width="100%" viewBox="0 0 512 512" enable-background="new 0 0 512 512" xml:space="preserve">
<path fill="#FFFFFF" opacity="1.000000" stroke="none" 
	d="
M1.442538,190.987976 
	C1.000000,129.030060 1.028999,67.060074 0.917541,5.090337 
	C0.911741,1.865911 1.295830,0.892191 4.906008,0.894788 
	C172.991043,1.015731 341.076202,1.017348 509.161224,0.888152 
	C512.909241,0.885271 513.075684,2.073480 513.071228,5.157533 
	C512.977112,70.125816 513.000000,135.094269 513.000000,200.531342 
	C510.191101,200.446472 510.691772,198.072174 510.620392,196.265259 
	C509.956573,179.463196 508.779572,162.684464 506.424316,146.050140 
	C503.960327,128.647690 499.757233,111.640816 489.531372,96.877579 
	C479.170959,81.920135 464.561646,73.295380 447.033081,69.213783 
	C437.385010,66.967186 427.504913,67.076698 417.736053,66.595200 
	C391.324371,65.293404 364.932495,63.583431 338.467285,63.159199 
	C328.509735,62.999580 318.511658,62.827923 308.541260,62.432930 
	C286.580383,61.562920 264.606812,60.975838 242.641754,61.536949 
	C215.042740,62.241978 187.440277,62.786198 159.851822,64.175484 
	C144.574997,64.944801 129.282806,65.637733 114.010628,66.536064 
	C100.396324,67.336884 86.725624,68.097740 73.240486,69.970314 
	C43.840832,74.052803 24.905077,91.333252 14.803038,118.784470 
	C8.940835,134.714386 6.683033,151.357681 5.443833,168.184647 
	C5.052909,173.492966 4.343156,178.770966 4.300903,184.113724 
	C4.281402,186.579483 3.944038,189.133438 1.442538,190.987976 
z"/>
<path fill="#FFFFFF" opacity="1.000000" stroke="none" 
	d="
M512.557983,311.018066 
	C513.000000,376.968048 512.973145,442.936096 513.081360,508.903992 
	C513.086670,512.116272 512.721558,513.108459 509.099670,513.105835 
	C341.014526,512.984192 172.929276,512.982788 4.844130,513.111328 
	C1.107110,513.114197 0.922942,511.942963 0.927800,508.847809 
	C1.024552,447.211090 1.000000,385.574188 1.000000,323.468658 
	C4.711185,324.648132 4.021590,328.324829 4.164854,331.128815 
	C4.640980,340.447601 5.646994,349.710602 6.469016,358.993225 
	C7.799679,374.019684 11.004642,388.615326 16.646988,402.633789 
	C26.735529,427.698761 45.886997,441.202850 72.000748,445.379150 
	C84.656326,447.403137 97.469177,448.005402 110.288521,448.656525 
	C146.376129,450.489532 182.492706,450.850067 218.597382,451.837921 
	C243.255798,452.512604 267.915863,452.911194 292.527100,452.277191 
	C315.462280,451.686340 338.426392,451.200775 361.363312,449.827637 
	C378.800018,448.783752 396.257050,448.016296 413.665833,446.520325 
	C422.952423,445.722351 432.314178,445.369751 441.505524,443.955353 
	C470.451263,439.501099 489.108856,422.453156 499.124878,395.413269 
	C504.964783,379.647522 507.227570,363.158264 508.511292,346.499512 
	C509.303894,336.213684 510.412598,325.949677 510.597198,315.621643 
	C510.626801,313.964081 510.683807,312.256622 512.557983,311.018066 
z"/>
<path fill="#000000" opacity="1.000000" stroke="none" 
	d="
M513.000000,310.531342 
	C511.870148,311.232788 511.988800,312.137054 512.010376,312.932465 
	C512.332336,324.817932 510.814972,336.605499 509.917542,348.412506 
	C508.419434,368.123230 505.501587,387.776489 496.552765,405.566589 
	C486.599701,425.353149 470.973938,439.050140 448.659454,444.038574 
	C436.472015,446.763123 424.029755,446.744080 411.706512,447.999481 
	C394.672211,449.734772 377.588257,450.445526 360.482758,451.196045 
	C342.155426,452.000183 323.809631,452.284454 305.506744,453.200104 
	C280.920441,454.430115 256.342560,454.260437 231.794403,453.764069 
	C213.552673,453.395172 195.272949,453.821564 177.084137,452.751373 
	C165.643188,452.078247 154.228104,452.681244 142.839279,451.940338 
	C128.352188,450.997894 113.818924,450.804443 99.365829,449.778259 
	C84.402931,448.715851 69.250900,447.985931 54.890606,442.494385 
	C35.595963,435.115936 22.455067,421.698669 15.048022,402.627808 
	C9.226651,387.639618 6.127003,372.089630 4.765699,355.992310 
	C3.844735,345.101990 3.531194,334.122009 1.394604,323.147888 
	C1.000000,279.312439 1.000000,235.624878 1.000000,191.468658 
	C2.588905,188.522476 2.882080,185.761658 3.029286,182.887024 
	C4.176553,160.483551 6.036744,138.222229 13.939207,116.896057 
	C22.609413,93.498009 38.695148,77.886513 62.376156,70.366249 
	C70.775909,67.698784 79.741135,67.670052 88.496346,67.067207 
	C104.732460,65.949257 120.927910,64.302238 137.218246,63.746750 
	C141.920944,63.586391 146.720886,63.080379 151.474960,63.042652 
	C162.563828,62.954643 173.637512,62.158760 184.696915,61.688393 
	C192.275955,61.366043 199.876053,61.421009 207.452209,60.993565 
	C229.843445,59.730259 252.259155,59.804039 274.664734,60.066864 
	C293.738007,60.290600 312.819672,60.726860 331.876526,61.291065 
	C342.118439,61.594288 352.396301,61.349648 362.617950,62.062412 
	C376.271881,63.014526 389.936035,63.533833 403.603058,64.154686 
	C414.765900,64.661781 425.949646,65.314629 437.090454,66.157333 
	C452.145477,67.296112 465.713043,72.758598 477.811737,82.173927 
	C492.575348,93.663139 499.254547,109.581123 504.013733,126.802368 
	C507.804199,140.518326 509.008057,154.559204 510.148590,168.682541 
	C511.009247,179.340256 511.860962,189.981812 512.591675,200.833466 
	C513.000000,237.354233 513.000000,273.708466 513.000000,310.531342 
z"/>
<path fill="#FFFFFF" opacity="1.000000" stroke="none" 
	d="
M19.000000,196.125626 
	C20.517990,181.664352 21.169840,167.611511 22.870159,153.630844 
	C24.579460,139.576309 27.895048,126.105217 33.981689,113.343483 
	C41.027939,98.569771 53.303917,90.275375 68.631599,86.055443 
	C74.623108,84.405891 80.831871,84.184822 87.066772,83.893478 
	C107.652252,82.931587 128.202942,81.391716 148.815872,80.737816 
	C155.374557,80.529755 161.997650,80.426208 168.574417,79.985237 
	C187.306610,78.729256 206.113327,79.874237 224.800613,78.759315 
	C242.912643,77.678711 261.010834,77.649033 279.045837,78.270851 
	C295.306396,78.831497 311.594055,78.060432 327.781006,79.224068 
	C338.064209,79.963303 348.317261,79.333511 358.540009,80.067612 
	C372.198273,81.048431 385.886475,81.306053 399.538177,82.141205 
	C411.039459,82.844803 422.555817,83.307953 434.043396,84.101646 
	C454.281067,85.499901 473.805725,97.573509 481.186951,118.183975 
	C485.950745,131.485886 489.335419,144.959518 490.997559,158.926193 
	C492.628113,172.627609 493.403290,186.379486 494.130859,200.163406 
	C496.008698,235.740280 495.024628,271.327728 494.698456,306.890747 
	C494.558136,322.189819 492.717865,337.588654 491.217316,352.920898 
	C489.497864,370.490082 486.072083,387.542725 477.782288,403.008728 
	C470.381683,416.815796 458.506989,425.859161 442.630188,429.056580 
	C431.140350,431.370483 419.503021,431.268280 407.907349,432.051086 
	C389.090363,433.321411 370.249023,433.614838 351.417450,434.290466 
	C343.006042,434.592194 334.572449,434.619202 326.157135,434.989624 
	C298.924805,436.188354 271.662292,436.521667 244.430344,435.835938 
	C225.013275,435.346954 205.575958,435.665375 186.199524,434.743195 
	C176.434906,434.278473 166.662872,434.688507 156.944595,433.929352 
	C141.625000,432.732697 126.201401,433.295868 110.959679,431.787842 
	C94.527153,430.162048 77.741806,430.536987 61.817417,425.018707 
	C46.767426,419.803436 36.625790,409.513550 31.056768,394.777344 
	C25.653355,380.479340 22.753008,365.701538 21.804298,350.345612 
	C20.965002,336.760681 19.670769,323.198822 18.882402,309.588043 
	C16.956894,276.345032 18.477497,243.096069 18.186132,209.854294 
	C18.148172,205.523315 18.962465,201.043884 19.000000,196.125626 
z"/>
<path fill="#000000" opacity="1.000000" stroke="none" 
	d="
M367.088837,269.675720 
	C363.024170,275.896393 356.306458,277.718109 350.640808,280.943665 
	C326.328094,294.785492 301.832733,308.306244 277.416687,321.966858 
	C253.007111,335.623810 228.617172,349.315948 204.205185,362.968658 
	C201.629333,364.409271 198.937469,365.304749 195.841766,365.047607 
	C191.028030,364.647644 188.023285,361.823853 188.020782,356.880371 
	C187.989197,294.547455 187.973175,232.214493 188.038315,169.881653 
	C188.045471,163.038528 194.790451,159.007111 200.734589,162.369888 
	C216.681564,171.391556 232.493835,180.651733 248.342728,189.846252 
	C263.354370,198.555069 278.358490,207.277115 293.340393,216.036987 
	C308.056976,224.641739 322.738098,233.307083 337.441376,241.934692 
	C346.032806,246.975967 354.700745,251.890701 363.210663,257.065613 
	C367.998016,259.976837 368.905029,263.332886 367.088837,269.675720 
z"/>
<path fill="#FFFFFF" opacity="1.000000" stroke="none" 
	d="
M256.353180,312.243591 
	C249.350098,316.304260 242.701660,320.220093 235.968414,323.984253 
	C226.849670,329.082031 217.660141,334.053101 208.521225,339.115051 
	C207.811890,339.507904 207.267044,340.206055 206.171555,339.628906 
	C206.171555,288.955170 206.171555,238.179764 206.171555,186.463730 
	C251.240936,212.922562 295.900055,239.140549 340.805786,265.503296 
	C325.212646,274.147491 309.728546,282.745697 294.230286,291.318268 
	C281.719055,298.238617 269.190765,305.128052 256.353180,312.243591 
z"/>
</svg>