<svg version="1.1" id="Layer_1" xmlns="http://www.w3.org/2000/svg" xmlns:xlink="http://www.w3.org/1999/xlink" x="50px" y="50px"
	 width="100%" viewBox="0 0 432 432" enable-background="new 0 0 432 432" xml:space="preserve">
<path fill="#434343" opacity="0.0" stroke="none" 
	d="
M245.000000,433.000000 
	C163.333344,433.000000 82.166687,433.000000 1.000022,433.000000 
	C1.000015,289.000031 1.000015,145.000061 1.000007,1.000060 
	C144.999954,1.000040 288.999908,1.000040 432.999908,1.000020 
	C432.999939,144.999939 432.999939,288.999878 432.999969,432.999908 
	C370.500000,433.000000 308.000000,433.000000 245.000000,433.000000 
M177.254150,228.357849 
	C167.132370,218.392624 157.010590,208.427399 146.962357,197.791229 
	C147.205795,197.183487 147.384903,196.539719 147.701965,195.973175 
	C159.317581,175.217834 176.127304,162.165039 200.497940,160.101669 
	C202.231934,159.954849 204.143661,158.617371 205.458984,157.314758 
	C222.013947,140.919739 238.478836,124.433701 254.946274,107.950470 
	C255.826508,107.069389 256.524323,106.006065 257.576385,104.690926 
	C255.972168,103.923965 254.852768,103.263603 253.651123,102.832504 
	C218.921844,90.373039 184.816528,91.967255 151.548248,107.876358 
	C130.571396,117.907616 113.745758,132.995010 99.699539,151.190125 
	C86.494453,138.056931 73.304604,124.908356 60.079777,111.795059 
	C48.031994,99.848892 34.056843,99.946724 21.980787,112.013885 
	C20.804354,113.189453 19.613453,114.352119 18.473974,115.562851 
	C8.315046,126.357040 8.358938,140.648239 18.872828,151.194061 
	C38.599403,170.980576 58.466805,190.626678 78.317352,211.182465 
	C74.844185,256.048340 88.996391,294.199615 122.862442,324.092224 
	C151.724777,349.568207 186.030792,359.097595 224.694443,356.124725 
	C244.362976,375.746704 263.979004,395.421692 283.720612,414.969879 
	C294.739197,425.880463 308.963379,425.776062 320.043640,414.944916 
	C321.946777,413.084595 323.859589,411.222565 325.622589,409.232544 
	C334.224762,399.523010 334.175659,385.711456 325.404602,376.137848 
	C321.923431,372.338196 318.174530,368.780884 314.496063,365.165558 
	C303.830841,354.683289 293.139526,344.227600 282.916107,333.227234 
	C306.609497,316.231201 323.684021,294.179779 332.734680,266.392273 
	C349.925964,213.610931 332.755768,158.466370 291.059814,124.172562 
	C288.371338,121.961357 286.620941,121.343529 283.667572,124.292625 
	C253.742416,154.174591 223.637604,183.876678 193.569183,213.615067 
	C188.380447,218.746841 183.125885,223.812088 177.254150,228.357849 
M259.327148,20.019472 
	C230.203598,13.448246 200.991531,12.299912 171.530518,17.896505 
	C129.516052,25.877819 93.300507,44.794952 62.754650,74.655373 
	C61.980190,75.412460 61.449718,76.419136 60.805458,77.309410 
	C61.485985,76.788048 62.166512,76.266693 62.847034,75.745331 
	C76.223091,89.798218 89.599152,103.851097 102.964073,117.892288 
	C172.093613,52.244556 263.963318,68.802567 312.707275,115.089798 
	C369.142303,168.680435 379.506592,263.440765 317.262726,329.702728 
	C319.181152,334.678101 349.035309,365.910065 357.932831,372.233704 
	C358.317139,371.956360 358.767120,371.717804 359.109344,371.372498 
	C394.564209,335.598816 414.061615,292.373291 418.957825,242.452301 
	C421.178131,219.814346 419.353058,197.368546 413.968048,175.286255 
	C402.724060,129.178177 378.655060,91.091766 341.895538,61.044731 
	C317.717529,41.281780 290.302643,28.002115 259.327148,20.019472 
z"/>
<path fill="#43a1f1" opacity="1.000000" stroke="none" 
	d="
M259.737061,20.113255 
	C290.302643,28.002115 317.717529,41.281780 341.895538,61.044731 
	C378.655060,91.091766 402.724060,129.178177 413.968048,175.286255 
	C419.353058,197.368546 421.178131,219.814346 418.957825,242.452301 
	C414.061615,292.373291 394.564209,335.598816 359.109344,371.372498 
	C358.767120,371.717804 358.317139,371.956360 357.932831,372.233704 
	C349.035309,365.910065 319.181152,334.678101 317.262726,329.702728 
	C379.506592,263.440765 369.142303,168.680435 312.707275,115.089798 
	C263.963318,68.802567 172.093613,52.244556 102.964073,117.892288 
	C89.599152,103.851097 76.223091,89.798218 62.847034,75.745331 
	C62.166512,76.266693 61.485985,76.788048 60.805458,77.309410 
	C61.449718,76.419136 61.980190,75.412460 62.754650,74.655373 
	C93.300507,44.794952 129.516052,25.877819 171.530518,17.896505 
	C200.991531,12.299912 230.203598,13.448246 259.737061,20.113255 
z"/>
<path fill="#43a1f1" opacity="1.000000" stroke="none" 
	d="
M282.458466,333.761475 
	C293.139526,344.227600 303.830841,354.683289 314.496063,365.165558 
	C318.174530,368.780884 321.923431,372.338196 325.404602,376.137848 
	C334.175659,385.711456 334.224762,399.523010 325.622589,409.232544 
	C323.859589,411.222565 321.946777,413.084595 320.043640,414.944916 
	C308.963379,425.776062 294.739197,425.880463 283.720612,414.969879 
	C263.979004,395.421692 244.362976,375.746704 224.851837,355.698425 
	C228.603043,354.658630 232.208282,354.105042 235.788681,353.421326 
	C252.738678,350.184570 267.929596,342.754913 282.458466,333.761475 
z"/>
<path fill="#43a1f1" opacity="1.000000" stroke="none" 
	d="
M78.275642,210.331177 
	C58.466805,190.626678 38.599403,170.980576 18.872828,151.194061 
	C8.358938,140.648239 8.315046,126.357040 18.473974,115.562851 
	C19.613453,114.352119 20.804354,113.189453 21.980787,112.013885 
	C34.056843,99.946724 48.031994,99.848892 60.079777,111.795059 
	C73.304604,124.908356 86.494453,138.056931 99.833855,151.783371 
	C88.209641,170.000076 81.147087,189.381256 78.275642,210.331177 
z"/>
<!-- G letter stroke -->
<path fill="#43a1f1" opacity="1.000000" stroke="none" 
	d="
M78.296494,210.756821 
	C81.147087,189.381256 88.209641,170.000076 100.064781,152.077637 
	C113.745758,132.995010 130.571396,117.907616 151.548248,107.876358 
	C184.816528,91.967255 218.921844,90.373039 253.651123,102.832504 
	C254.852768,103.263603 255.972168,103.923965 257.576385,104.690926 
	C256.524323,106.006065 255.826508,107.069389 254.946274,107.950470 
	C238.478836,124.433701 222.013947,140.919739 205.458984,157.314758 
	C204.143661,158.617371 202.231934,159.954849 200.497940,160.101669 
	C176.127304,162.165039 159.317581,175.217834 147.701965,195.973175 
	C147.384903,196.539719 147.205795,197.183487 146.630585,198.367035 
	C140.441803,211.716202 138.734344,225.086411 141.505630,238.799011 
	C147.987503,270.872040 173.165527,292.334259 205.996796,293.552917 
	C216.482376,293.942139 226.811111,292.185028 236.449432,286.603973 
	C262.691010,273.648346 280.624542,240.568848 273.665314,218.110046 
	C262.036591,229.519699 250.501358,240.765701 239.052734,252.099213 
	C232.794617,258.294403 226.682983,264.637573 220.215302,270.807678 
	C205.917435,256.770264 191.909576,242.839172 177.901733,228.908051 
	C183.125885,223.812088 188.380447,218.746841 193.569183,213.615067 
	C223.637604,183.876678 253.742416,154.174591 283.667572,124.292625 
	C286.620941,121.343529 288.371338,121.961357 291.059814,124.172562 
	C332.755768,158.466370 349.925964,213.610931 332.734680,266.392273 
	C323.684021,294.179779 306.609497,316.231201 282.687286,333.494354 
	C267.929596,342.754913 252.738678,350.184570 235.788681,353.421326 
	C232.208282,354.105042 228.603043,354.658630 224.581177,355.419312 
	C186.030792,359.097595 151.724777,349.568207 122.862442,324.092224 
	C88.996391,294.199615 74.844185,256.048340 78.296494,210.756821 
M187.786789,351.911774 
	C249.368347,361.974121 308.515015,326.872833 329.330292,268.081665 
	C350.123413,209.352997 324.267670,151.625534 286.155243,124.386421 
	C251.954971,159.550140 217.621216,194.851105 183.522873,229.910034 
	C195.051270,241.444260 207.614304,254.013626 220.477783,266.883606 
	C229.398026,258.125885 238.522217,249.165680 247.649002,240.208099 
	C256.720001,231.305237 265.793579,222.405014 275.253662,213.123352 
	C275.825500,214.647537 276.156921,215.226715 276.257965,215.843628 
	C282.624115,254.710342 253.307068,292.875824 214.238068,295.842072 
	C185.276703,298.040894 162.078125,286.944580 147.406052,261.738007 
	C132.808136,236.658768 133.934692,210.975708 150.260193,186.835632 
	C161.390610,170.377380 177.125275,160.412582 197.173813,157.710892 
	C199.877731,157.346497 202.988480,156.143997 204.889099,154.284973 
	C220.256897,139.253647 235.383194,123.975327 250.571213,108.760414 
	C251.472717,107.857307 252.271332,106.851509 253.464081,105.501656 
	C236.343414,99.448891 219.287949,96.328491 201.657272,97.456314 
	C176.476685,99.067093 153.414856,106.972702 133.195770,122.254494 
	C93.471809,152.278259 75.238373,192.434601 81.689583,241.668198 
	C89.286377,299.644592 129.653229,340.524139 187.786789,351.911774 
z"/>
<path fill="#434343" opacity="0.0" stroke="none" 
	d="
M236.064621,286.555908 
	C226.811111,292.185028 216.482376,293.942139 205.996796,293.552917 
	C173.165527,292.334259 147.987503,270.872040 141.505630,238.799011 
	C138.734344,225.086411 140.441803,211.716202 146.593811,198.702499 
	C157.010590,208.427399 167.132370,218.392624 177.577942,228.632965 
	C191.909576,242.839172 205.917435,256.770264 220.414627,271.107513 
	C225.957520,276.527740 231.011063,281.541840 236.064621,286.555908 
z"/>
<!-- G letter -->
<path fill="#bfff71" opacity="1.000000" stroke="none" 
	d="
M187.352798,351.867249 
	C129.653229,340.524139 89.286377,299.644592 81.689583,241.668198 
	C75.238373,192.434601 93.471809,152.278259 133.195770,122.254494 
	C153.414856,106.972702 176.476685,99.067093 201.657272,97.456314 
	C219.287949,96.328491 236.343414,99.448891 253.464081,105.501656 
	C252.271332,106.851509 251.472717,107.857307 250.571213,108.760414 
	C235.383194,123.975327 220.256897,139.253647 204.889099,154.284973 
	C202.988480,156.143997 199.877731,157.346497 197.173813,157.710892 
	C177.125275,160.412582 161.390610,170.377380 150.260193,186.835632 
	C133.934692,210.975708 132.808136,236.658768 147.406052,261.738007 
	C162.078125,286.944580 185.276703,298.040894 214.238068,295.842072 
	C253.307068,292.875824 282.624115,254.710342 276.257965,215.843628 
	C276.156921,215.226715 275.825500,214.647537 275.253662,213.123352 
	C265.793579,222.405014 256.720001,231.305237 247.649002,240.208099 
	C238.522217,249.165680 229.398026,258.125885 220.477783,266.883606 
	C207.614304,254.013626 195.051270,241.444260 183.522873,229.910034 
	C217.621216,194.851105 251.954971,159.550140 286.155243,124.386421 
	C324.267670,151.625534 350.123413,209.352997 329.330292,268.081665 
	C308.515015,326.872833 249.368347,361.974121 187.352798,351.867249 
z"/>
<path fill="#434343" opacity="0.0" stroke="none" 
	d="
M236.449432,286.603973 
	C231.011063,281.541840 225.957520,276.527740 220.704620,271.213837 
	C226.682983,264.637573 232.794617,258.294403 239.052734,252.099213 
	C250.501358,240.765701 262.036591,229.519699 273.665314,218.110046 
	C280.624542,240.568848 262.691010,273.648346 236.449432,286.603973 
z"/>
</svg>